<svg width="20" height="20" viewBox="0 0 20 20"  xmlns="http://www.w3.org/2000/svg">
<path id="Mask" fill-rule="evenodd" fill="" clip-rule="evenodd" d="M3.4836 1.67282H0.833333C0.373096 1.67282 0 1.3 0 0.840104C0 0.380206 0.373096 0.00738525 0.833333 0.00738525H4.16667C4.56386 0.00738525 4.90584 0.2875 4.98379 0.676678L5.68369 4.17098H19.1667C19.6895 4.17098 20.0832 4.64649 19.9852 5.15969L18.6507 12.1524C18.4148 13.3394 17.3615 14.1866 16.1667 14.1636L8.08263 14.1635C6.87186 14.1866 5.81855 13.3394 5.58287 12.1536L4.19066 5.20289C4.18501 5.1799 4.18032 5.15653 4.17663 5.13283L3.4836 1.67282ZM5.83333 17.4958C5.83333 18.4959 6.49946 19.1626 7.49864 19.1626C8.49782 19.1626 9.16395 18.4959 9.16395 17.4958C9.16395 16.4958 8.49782 15.8291 7.49864 15.8291C6.49946 15.8291 5.83333 16.4958 5.83333 17.4958ZM15 17.4945C15 18.4937 15.6661 19.1599 16.6653 19.1599C17.6645 19.1599 18.3306 18.4937 18.3306 17.4945C18.3306 16.4952 17.6645 15.8291 16.6653 15.8291C15.6661 15.8291 15 16.4952 15 17.4945ZM7.21737 11.828L6.01727 5.83642H18.1594L17.0148 11.8342C16.9373 12.2236 16.5862 12.5061 16.1826 12.4983L8.06667 12.4982C7.64711 12.5061 7.29601 12.2236 7.21737 11.828Z" fill="currentColor"/>
</svg>
