<svg width="12" height="12" viewBox="0 0 12 12" fill="none" xmlns="http://www.w3.org/2000/svg">
<path id="Mask" d="M11.5832 10.4167C11.9165 10.75 11.9165 11.25 11.5832 11.5833C11.4165 11.75 11.2498 11.8333 10.9998 11.8333C10.7498 11.8333 10.5832 11.75 10.4165 11.5833L5.99984 7.16667L1.58317 11.5833C1.4165 11.75 1.24984 11.8333 0.999837 11.8333C0.749837 11.8333 0.583171 11.75 0.416504 11.5833C0.0831706 11.25 0.0831706 10.75 0.416504 10.4167L4.83317 6.00001L0.416504 1.58334C0.0831706 1.25001 0.0831706 0.750005 0.416504 0.416672C0.749837 0.0833384 1.24984 0.0833384 1.58317 0.416672L5.99984 4.83334L10.4165 0.416672C10.7498 0.0833384 11.2498 0.0833384 11.5832 0.416672C11.9165 0.750005 11.9165 1.25001 11.5832 1.58334L7.1665 6.00001L11.5832 10.4167Z" fill="currentColor"/>
</svg>
