<svg width="14" height="15" viewBox="0 0 14 15" fill="none" xmlns="http://www.w3.org/2000/svg">
<path id="Mask" fill-rule="evenodd" clip-rule="evenodd" d="M13.0002 2.8367H10.3335V2.17052C10.3335 1.03803 9.46683 0.171997 8.3335 0.171997H5.66683C4.5335 0.171997 3.66683 1.03803 3.66683 2.17052V2.8367H1.00016C0.600163 2.8367 0.333496 3.10317 0.333496 3.50288C0.333496 3.90258 0.600163 4.16905 1.00016 4.16905H1.66683V12.8293C1.66683 13.9618 2.5335 14.8279 3.66683 14.8279H10.3335C11.4668 14.8279 12.3335 13.9618 12.3335 12.8293V4.16905H13.0002C13.4002 4.16905 13.6668 3.90258 13.6668 3.50288C13.6668 3.10317 13.4002 2.8367 13.0002 2.8367ZM5.00016 2.17052C5.00016 1.77082 5.26683 1.50435 5.66683 1.50435H8.3335C8.7335 1.50435 9.00016 1.77082 9.00016 2.17052V2.8367H5.00016V2.17052ZM10.3335 13.4955C10.7335 13.4955 11.0002 13.229 11.0002 12.8293V4.16905H3.00016V12.8293C3.00016 13.229 3.26683 13.4955 3.66683 13.4955H10.3335ZM6.3335 6.83375V10.8308C6.3335 11.2305 6.06683 11.497 5.66683 11.497C5.26683 11.497 5.00016 11.2305 5.00016 10.8308V6.83375C5.00016 6.43405 5.26683 6.16758 5.66683 6.16758C6.06683 6.16758 6.3335 6.43405 6.3335 6.83375ZM9.00016 10.8308V6.83375C9.00016 6.43405 8.7335 6.16758 8.3335 6.16758C7.9335 6.16758 7.66683 6.43405 7.66683 6.83375V10.8308C7.66683 11.2305 7.9335 11.497 8.3335 11.497C8.7335 11.497 9.00016 11.2305 9.00016 10.8308Z" fill="currentColor"/>
</svg>
