<?xml version="1.0" standalone="no"?><!DOCTYPE svg PUBLIC "-//W3C//DTD SVG 1.1//EN" "http://www.w3.org/Graphics/SVG/1.1/DTD/svg11.dtd"><svg t="1693218588352" class="icon" viewBox="0 0 1194 1024" version="1.1" xmlns="http://www.w3.org/2000/svg" p-id="3828" xmlns:xlink="http://www.w3.org/1999/xlink" width="55.96875" height="48"><path d="M1111.167537 860.160068H81.023966A80.8533 80.8533 0 0 0 0 940.800035v0.426666c0 44.543981 36.266652 80.639966 81.023966 80.639967h1030.143571a80.8533 80.8533 0 0 0 81.023966-80.639967v-0.426666c0-44.543981-36.309318-80.639966-81.066633-80.639967m-0.383999-430.59182H81.493299A81.237299 81.237299 0 0 0 0 510.634881v0.639999c0 44.714648 36.437318 81.066633 81.450633 81.066633h1029.290238c44.970648 0 81.450633-36.351985 81.450632-81.066633v-0.639999c0-44.799981-36.479985-81.066633-81.450632-81.066633M1111.167537 0.000427H81.023966A80.8533 80.8533 0 0 0 0 80.640393v0.426667c0 44.543981 36.266652 80.639966 81.023966 80.639966h1030.143571a80.8533 80.8533 0 0 0 81.023966-80.639966v-0.426667c0-44.501315-36.309318-80.639966-81.066633-80.639966" fill="#2c2c2c" p-id="3829"></path></svg>