<svg width="18" height="20" viewBox="0 0 18 20" fill="none" xmlns="http://www.w3.org/2000/svg">
<path id="Mask" fill-rule="evenodd" clip-rule="evenodd" d="M16.9998 6.84968L9.49984 1.02727C9.1665 0.777735 8.74984 0.777735 8.49984 1.02727L0.999837 6.84968C0.749837 7.01604 0.666504 7.26557 0.666504 7.5151V16.6646C0.666504 18.0786 1.74984 19.1599 3.1665 19.1599H14.8332C16.2498 19.1599 17.3332 18.0786 17.3332 16.6646V7.5151C17.3332 7.26557 17.2498 7.01604 16.9998 6.84968ZM10.6665 10.8422V17.4964H7.33317V10.8422H10.6665ZM14.8332 17.4964C15.3332 17.4964 15.6665 17.1637 15.6665 16.6646V7.93099L8.99984 2.77399L2.33317 7.93099V16.6646C2.33317 17.1637 2.6665 17.4964 3.1665 17.4964H5.6665V10.0104C5.6665 9.51136 5.99984 9.17865 6.49984 9.17865H11.4998C11.9998 9.17865 12.3332 9.51136 12.3332 10.0104V17.4964H14.8332Z" fill="currentColor"/>
</svg>
