<svg width="27" height="28" viewBox="0 0 27 28" fill="none" xmlns="http://www.w3.org/2000/svg">
<g id="chevron">
<path id="Vector" d="M27 13.749C27 16.4191 26.2082 19.0292 24.7248 21.2492C23.2414 23.4693 21.133 25.1996 18.6662 26.2214C16.1994 27.2432 13.485 27.5105 10.8663 26.9896C8.24754 26.4687 5.84207 25.183 3.95406 23.295C2.06606 21.407 0.780305 19.0015 0.259405 16.3827C-0.261495 13.764 0.00584951 11.0496 1.02763 8.58279C2.04942 6.11599 3.77974 4.00758 5.99981 2.52418C8.21987 1.04078 10.83 0.249024 13.5 0.249024C17.0797 0.251396 20.5121 1.67447 23.0433 4.2057C25.5745 6.73693 26.9976 10.1693 27 13.749ZM1.8006 13.749C1.8006 16.0651 2.48751 18.3291 3.77444 20.2548C5.06137 22.1804 6.89049 23.6811 9.03044 24.567C11.1704 25.4529 13.525 25.6842 15.7964 25.2317C18.0679 24.7793 20.1541 23.6632 21.7912 22.0249C23.4283 20.3866 24.5427 18.2995 24.9934 16.0277C25.4442 13.7559 25.2111 11.4015 24.3235 9.26221C23.4359 7.12295 21.9339 5.29497 20.0073 4.00952C18.0807 2.72407 15.8161 2.03889 13.5 2.04066C10.397 2.04541 7.42265 3.28077 5.22935 5.47574C3.03606 7.67072 1.80297 10.646 1.8006 13.749Z" fill="#A2A2A2"/>
<path id="Vector_2" d="M17.5491 13.7491C17.5481 13.9842 17.4548 14.2094 17.2893 14.3762L12.2459 19.4197C12.078 19.5865 11.851 19.6802 11.6143 19.6802C11.3776 19.6802 11.1506 19.5865 10.9828 19.4197C10.8988 19.3364 10.8321 19.2373 10.7867 19.1282C10.7412 19.019 10.7178 18.9019 10.7178 18.7836C10.7178 18.6654 10.7412 18.5483 10.7867 18.4391C10.8321 18.33 10.8988 18.2309 10.9828 18.1476L15.3812 13.7491L10.9828 9.32379C10.8988 9.24052 10.8321 9.14144 10.7867 9.03227C10.7412 8.92311 10.7178 8.80602 10.7178 8.68776C10.7178 8.5695 10.7412 8.45242 10.7867 8.34325C10.8321 8.23409 10.8988 8.13501 10.9828 8.05173C11.1506 7.88488 11.3776 7.79123 11.6143 7.79123C11.851 7.79123 12.078 7.88488 12.2459 8.05173L17.2893 13.0952C17.3745 13.181 17.4415 13.2832 17.4861 13.3956C17.5308 13.508 17.5522 13.6282 17.5491 13.7491Z" fill="#A2A2A2"/>
</g>
</svg>
