<svg width="27" height="28" viewBox="0 0 27 28" fill="none" xmlns="http://www.w3.org/2000/svg">
<g id="chevron">
<path id="Vector" d="M-5.90104e-07 13.749C-4.73392e-07 11.079 0.791761 8.46889 2.27516 6.24883C3.75856 4.02877 5.86697 2.29844 8.33377 1.27665C10.8006 0.254872 13.515 -0.0124728 16.1337 0.508428C18.7525 1.02933 21.1579 2.31508 23.0459 4.20309C24.9339 6.0911 26.2197 8.49656 26.7406 11.1153C27.2615 13.7341 26.9941 16.4485 25.9724 18.9153C24.9506 21.3821 23.2203 23.4905 21.0002 24.9739C18.7801 26.4573 16.17 27.249 13.5 27.249C9.9203 27.2466 6.4879 25.8236 3.95668 23.2923C1.42545 20.7611 0.002372 17.3287 -5.90104e-07 13.749ZM25.1994 13.749C25.1994 11.433 24.5125 9.16891 23.2256 7.24328C21.9386 5.31766 20.1095 3.81697 17.9696 2.93106C15.8296 2.04515 13.475 1.8138 11.2036 2.2663C8.93211 2.7188 6.8459 3.8348 5.20881 5.47314C3.57172 7.11148 2.45732 9.19855 2.00656 11.4703C1.5558 13.7421 1.78895 16.0966 2.6765 18.2358C3.56405 20.3751 5.06613 22.2031 6.99274 23.4885C8.91935 24.774 11.1839 25.4592 13.5 25.4574C16.603 25.4526 19.5774 24.2173 21.7706 22.0223C23.9639 19.8273 25.197 16.852 25.1994 13.749Z" fill="#A2A2A2"/>
<path id="Vector_2" d="M9.45089 13.7489C9.45188 13.5139 9.54518 13.2887 9.71068 13.1218L14.7541 8.07837C14.922 7.91152 15.149 7.81787 15.3857 7.81787C15.6224 7.81787 15.8494 7.91152 16.0172 8.07837C16.1012 8.16165 16.1679 8.26073 16.2133 8.36989C16.2588 8.47905 16.2822 8.59614 16.2822 8.7144C16.2822 8.83266 16.2588 8.94975 16.2133 9.05891C16.1679 9.16808 16.1012 9.26715 16.0172 9.35043L11.6188 13.7489L16.0172 18.1743C16.1012 18.2575 16.1679 18.3566 16.2133 18.4658C16.2588 18.5749 16.2822 18.692 16.2822 18.8103C16.2822 18.9285 16.2588 19.0456 16.2133 19.1548C16.1679 19.264 16.1012 19.363 16.0172 19.4463C15.8494 19.6132 15.6224 19.7068 15.3857 19.7068C15.149 19.7068 14.922 19.6132 14.7541 19.4463L9.71068 14.4029C9.62547 14.317 9.55853 14.2148 9.51389 14.1025C9.46924 13.9901 9.44781 13.8698 9.45089 13.7489Z" fill="#A2A2A2"/>
</g>
</svg>
