<svg width="20" height="20" viewBox="0 0 20 20" fill="none" xmlns="http://www.w3.org/2000/svg">
<g id=" Icon">
<path id="Mask" fill-rule="evenodd" clip-rule="evenodd" d="M10.0002 1.67282C7.66683 1.67282 5.8335 3.5048 5.8335 5.83642C5.8335 8.16803 7.66683 10 10.0002 10C12.3335 10 14.1668 8.16803 14.1668 5.83642C14.1668 3.5048 12.3335 1.67282 10.0002 1.67282ZM10.0002 8.33457C8.5835 8.33457 7.50016 7.25204 7.50016 5.83642C7.50016 4.42079 8.5835 3.33826 10.0002 3.33826C11.4168 3.33826 12.5002 4.42079 12.5002 5.83642C12.5002 7.25204 11.4168 8.33457 10.0002 8.33457Z" fill="currentColor"/>
<path id="Path" d="M17.5 15.8289V17.4944C17.5 17.994 17.1667 18.3271 16.6667 18.3271C16.1667 18.3271 15.8333 17.994 15.8333 17.4944V15.8289C15.8333 14.4133 14.75 13.3308 13.3333 13.3308H6.66667C5.25 13.3308 4.16667 14.4133 4.16667 15.8289V17.4944C4.16667 17.994 3.83333 18.3271 3.33333 18.3271C2.83333 18.3271 2.5 17.994 2.5 17.4944V15.8289C2.5 13.4973 4.33333 11.6653 6.66667 11.6653H13.3333C15.6667 11.6653 17.5 13.4973 17.5 15.8289Z" fill="currentColor"/>
</g>
</svg>
